<svg width="150" height="22" viewBox="0 0 150 22" fill="none" xmlns="http://www.w3.org/2000/svg">
<path d="M0.570312 20.7973V0.251953H7.0456C8.24474 0.251953 9.44388 0.493717 10.4032 0.735344C11.3625 0.735344 12.0819 1.21887 12.5615 1.70226C13.0413 2.18565 13.5209 2.66904 13.7607 3.39419C14.2404 3.87758 14.4802 4.60274 14.4802 5.56965C14.4802 6.05304 14.4802 6.53643 14.2404 7.01982C14.0006 7.50321 13.7607 7.98674 13.5209 8.47013C13.0413 8.71176 12.8015 9.19528 12.3217 9.43691C11.8421 9.67867 11.1226 9.9203 10.4032 10.1621C12.082 10.6455 13.0413 11.129 14.0006 11.854C14.72 12.5792 15.1998 13.7877 15.1998 14.9962C15.1998 15.9632 14.9598 16.6882 14.72 17.4133C14.4802 18.1385 14.0006 18.8636 13.2811 19.347C12.5615 19.8304 11.8421 20.3139 11.1226 20.5556C10.1634 20.7973 9.20407 21.039 8.00494 21.039H0.570312V20.7973ZM3.44819 9.43691H7.0456C7.76514 9.43691 8.48454 9.43691 9.20407 9.19528C9.68367 8.95352 10.1634 8.71176 10.4032 8.47013C10.8828 8.22837 11.1226 7.74498 11.3625 7.26159C11.6023 6.7782 11.6023 6.29467 11.6023 5.81128C11.6023 4.60274 11.1226 3.63596 10.4032 3.15243C9.68367 2.66904 8.72447 2.42741 7.0456 2.42741H3.44819V9.43691ZM3.44819 11.3706V18.6219H8.00494C8.72447 18.6219 9.44387 18.6219 10.1634 18.3802C10.643 18.1385 11.1226 17.8969 11.6023 17.6551C12.0819 17.4133 12.3217 16.9299 12.3217 16.4465C12.5615 15.9632 12.5615 15.4796 12.5615 14.9962C12.5615 14.0295 12.0819 13.0625 11.3625 12.3375C10.4032 11.854 9.20407 11.3706 7.76514 11.3706H3.44819Z" fill="#2BABDA"/>
<path d="M29.5936 0.251953V2.42741H19.7607V9.43691H27.6749V11.6124H19.7607V18.6219H29.5936V20.7973H16.8828V0.251953H29.5936Z" fill="#2BABDA"/>
<path d="M47.5797 0.252124V2.66921H40.8646V21.0391H37.9867V2.42759H31.2715V0.010498H47.5797V0.252124Z" fill="#2BABDA"/>
<path d="M49.2598 0.251953H51.4181C51.658 0.251953 51.8978 0.251954 52.1376 0.493718C52.3774 0.735344 52.3774 0.735345 52.3774 0.977109L58.1333 15.7214C58.3731 15.9632 58.3731 16.4465 58.6129 16.6882C58.8527 16.9299 58.8527 17.4133 58.8527 17.8969C58.8527 17.4133 59.0925 17.1717 59.0925 16.6882C59.0925 16.2048 59.3325 15.9632 59.3325 15.7214L65.0882 0.977109C65.0882 0.735345 65.328 0.735344 65.328 0.493718C65.5678 0.251954 65.8078 0.251953 66.0476 0.251953H68.206L59.8121 21.039H57.4138L49.2598 0.251953Z" fill="white"/>
<path d="M73.2452 20.7973H70.3672V0.251953H73.2452V20.7973Z" fill="white"/>
<path d="M91.9451 16.6882C92.1849 16.6882 92.1849 16.6882 92.4247 16.93L93.6238 18.1385C92.6646 19.1053 91.7053 19.8305 90.5062 20.5556C89.307 21.2808 87.8681 21.2808 86.1893 21.2808C84.7504 21.2808 83.3113 21.039 82.1123 20.5556C80.9132 20.0722 79.9539 19.3471 78.9945 18.3803C78.0352 17.4134 77.5556 16.4466 77.076 14.9963C76.5962 13.546 76.3564 12.3375 76.3564 10.6455C76.3564 8.95358 76.5962 7.74504 77.076 6.29473C77.5556 5.08619 78.2751 3.87765 79.2343 2.91087C80.1937 1.94395 81.153 1.2188 82.5919 0.735407C83.7911 0.252017 85.23 0.0102539 86.9087 0.0102539C88.3477 0.0102539 89.7866 0.252017 90.746 0.735407C91.7053 1.2188 92.9044 1.94395 93.6238 2.6691L92.6646 3.87765L92.4247 4.11941C92.4247 4.11941 92.1849 4.11941 91.9451 4.11941C91.7053 4.11941 91.7053 4.11941 91.4655 3.87765C91.2257 3.63602 91.2257 3.87765 90.9858 3.63602C90.746 3.39426 90.5062 3.39426 90.2664 3.15249C90.0266 2.91087 89.7866 2.91087 89.307 2.6691C89.0672 2.42734 88.5876 2.42734 88.1079 2.42734C87.6283 2.42734 87.1485 2.18571 86.4291 2.18571C85.23 2.18571 84.2707 2.42734 83.3113 2.6691C82.3521 3.15249 81.6326 3.63602 80.9132 4.36104C80.1937 5.08619 79.7141 5.81134 79.4741 7.01989C79.2343 8.22843 78.9945 9.19521 78.9945 10.4039C78.9945 11.6124 79.2343 12.821 79.4741 13.7878C79.9539 14.7545 80.4335 15.7215 80.9132 16.4466C81.3928 17.1718 82.3521 17.6551 83.0715 18.1385C84.0309 18.6219 84.9902 18.6219 85.9494 18.6219C86.6689 18.6219 87.1485 18.6219 87.6283 18.6219C88.1079 18.6219 88.5876 18.3803 89.0672 18.3803C89.5468 18.3803 89.7866 18.1385 90.2664 17.8968C90.5062 17.6551 90.9858 17.4134 91.4655 16.93C91.4655 16.6882 91.7053 16.6882 91.9451 16.6882Z" fill="white"/>
<path d="M111.13 0.252016V2.6691H104.415V21.039H101.537V2.42734H94.8223V0.0102539H111.13V0.252016Z" fill="white"/>
<path d="M131.757 10.6455C131.757 12.0958 131.518 13.546 131.038 14.9963C130.558 16.4466 129.839 17.4134 128.88 18.3803C127.92 19.3471 126.961 20.0722 125.762 20.5556C124.563 21.039 123.124 21.2808 121.686 21.2808C120.246 21.2808 118.808 21.039 117.607 20.5556C116.408 20.0722 115.209 19.3471 114.49 18.3803C113.531 17.4134 112.811 16.2048 112.332 14.9963C111.852 13.7878 111.612 12.3375 111.612 10.6455C111.612 8.95358 111.852 7.74504 112.332 6.29473C112.811 5.08619 113.531 3.87765 114.49 2.91087C115.45 1.94395 116.408 1.2188 117.607 0.735407C118.808 0.252017 120.246 0.0102539 121.686 0.0102539C123.124 0.0102539 124.563 0.252017 125.762 0.735407C126.961 1.2188 128.16 1.94395 128.88 2.91087C129.599 3.87765 130.558 5.08619 131.038 6.29473C131.518 7.50328 131.757 8.95358 131.757 10.6455ZM128.88 10.6455C128.88 9.43697 128.64 8.22843 128.4 7.26165C128.16 6.29473 127.681 5.32795 126.961 4.6028C126.242 3.87765 125.522 3.39426 124.563 2.91087C123.604 2.42734 122.644 2.42734 121.445 2.42734C120.246 2.42734 119.286 2.6691 118.328 2.91087C117.368 3.39426 116.649 3.87765 115.93 4.6028C115.689 5.32795 115.209 6.05311 114.729 7.01989C114.49 7.98667 114.251 9.19521 114.251 10.4039C114.251 11.6124 114.49 12.821 114.729 13.7878C114.97 14.7545 115.45 15.7215 116.169 16.4466C116.888 17.1718 117.607 17.6551 118.567 18.1385C119.527 18.6219 120.487 18.6219 121.686 18.6219C122.885 18.6219 123.843 18.3803 124.803 18.1385C125.762 17.8968 126.482 17.1718 127.201 16.4466C127.92 15.7215 128.4 14.9963 128.64 13.7878C128.64 13.0626 128.88 11.8541 128.88 10.6455Z" fill="white"/>
<path d="M137.028 12.3375V21.039H134.15V0.251953H139.906C141.105 0.251953 142.304 0.493717 143.264 0.735344C144.222 0.977107 144.941 1.4605 145.662 1.94389C146.381 2.42741 146.62 3.15243 147.1 3.87758C147.58 4.60274 147.58 5.32789 147.58 6.29467C147.58 7.01983 147.58 7.74498 147.341 8.47013C147.1 9.19528 146.861 9.67867 146.381 10.1621C145.901 10.6455 145.421 11.129 144.702 11.3706C143.983 11.6124 143.264 12.0958 142.543 12.0958C142.784 12.3375 143.264 12.5792 143.503 13.0625L149.498 21.2807H147.1C146.62 21.2807 146.142 21.039 145.901 20.7973L140.625 13.3043C140.386 13.0625 140.386 12.8209 140.145 12.8209C139.906 12.8209 139.666 12.5792 139.186 12.5792H137.028V12.3375ZM137.028 10.1621H139.906C140.625 10.1621 141.344 10.1621 142.064 9.9203C142.784 9.67867 143.264 9.43691 143.503 9.19529C143.983 8.71176 144.222 8.47013 144.463 7.98674C144.702 7.50322 144.702 7.01983 144.702 6.29467C144.702 5.08613 144.222 4.11935 143.503 3.39419C142.784 2.66904 141.585 2.42741 139.906 2.42741H136.788V10.1621H137.028Z" fill="white"/>
</svg>
