<svg width="193" height="40" viewBox="0 0 193 40" fill="none" xmlns="http://www.w3.org/2000/svg">
<path fill-rule="evenodd" clip-rule="evenodd" d="M78.3521 11.2583C78.4777 11.3804 78.7288 11.5027 78.98 11.5027C79.3566 11.5027 79.9845 11.3804 80.6124 10.8915C80.8636 10.7692 80.9892 10.6469 81.1146 10.4024C81.4914 10.0356 81.7425 9.66891 81.8681 9.30209C82.1193 8.813 82.1193 8.32407 81.9937 7.83497C82.1193 7.83497 81.9937 7.7127 81.9937 7.59043C81.617 7.10149 80.8636 7.10149 80.3613 7.22377C80.1101 7.22377 79.7334 7.46815 79.3566 7.7127C78.7288 8.07952 78.1011 8.813 77.9755 9.42436C77.9755 9.54664 77.8499 9.79118 77.8499 9.91346C77.8499 10.4024 77.7243 10.8915 78.3521 11.2583Z" fill="white"/>
<path fill-rule="evenodd" clip-rule="evenodd" d="M55.498 29.4752C55.247 29.8418 54.8702 30.2087 54.6191 30.4532C54.1169 31.0646 53.74 31.309 53.2378 31.6758C52.8611 32.0426 52.4843 32.2871 52.1077 32.4092C51.6054 32.6538 50.9775 32.8983 50.3497 32.7761C50.2241 32.7761 50.0985 32.6538 49.973 32.4092C49.7218 31.9203 49.973 31.309 50.0985 30.82C50.3497 30.3309 50.6009 29.8418 50.8519 29.3529C56.8794 22.0175 62.9068 14.6819 68.9342 7.2242H64.6648L48.4661 28.3749C48.215 28.7415 47.9638 29.1084 47.5872 29.3529C47.336 29.7197 46.9593 29.9641 46.7081 30.3309C46.2058 30.9423 45.7036 31.309 45.3268 31.6758C44.8245 32.0426 44.4478 32.4092 44.0712 32.5315C43.4433 32.7761 42.8155 33.0206 42.1876 32.7761C41.6853 32.4092 41.6853 31.9203 41.8108 31.4312C42.062 30.6977 42.5642 29.8418 43.1921 29.1084L53.9912 15.7822H49.973L41.5597 27.03C40.4296 28.6193 39.6761 30.0864 39.8017 31.6758C39.8017 31.9203 39.9273 32.1649 39.9273 32.4092C40.0528 32.6538 40.1784 32.8983 40.304 33.1429C40.6807 33.632 41.1831 33.8764 41.6853 33.9986C43.4433 34.2432 45.2013 33.5097 47.0849 31.4312C47.3359 31.1867 47.5872 30.82 47.8382 30.5755C47.7126 31.4312 47.4616 32.2871 47.9638 33.2652C48.4661 33.8764 48.9683 33.9986 49.4706 34.1209C50.6009 34.3655 51.8564 33.9986 52.9867 33.0206C53.9912 32.2871 54.9958 31.309 55.8748 30.3309C55.7492 30.6977 55.7492 31.0646 55.7492 31.4312C55.7492 31.6758 55.7492 31.798 55.7492 31.9203C55.7492 32.1649 55.8748 32.2871 55.8748 32.4092C55.8748 32.5315 56.0003 32.8983 56.2515 33.1429C56.6282 33.5097 56.8794 33.632 57.256 33.7541C57.8839 33.8764 58.763 33.8764 59.3908 33.632C60.1441 33.3874 60.8976 33.0206 61.6511 32.2871C62.4045 31.5535 63.0324 30.9423 63.6601 30.2087C63.5347 31.1867 63.1578 32.0426 63.7857 33.0206C63.9113 33.1429 64.0369 33.3874 64.288 33.5097C64.9158 33.8764 65.6693 33.9986 66.4228 33.8764C67.1762 33.7541 68.3064 33.1429 69.3109 32.4092C69.6875 32.1649 69.9388 31.9203 70.1898 31.6758C70.6922 31.1867 71.1945 30.6977 71.5711 30.2087C71.9478 31.0646 71.9478 32.0426 72.5757 33.0206C72.7013 33.2652 72.9525 33.3874 73.2035 33.5097C73.5803 33.7541 74.0826 33.7541 74.4593 33.7541C75.2127 33.7541 76.2172 33.3874 77.2219 32.6538C78.2264 31.9203 78.9799 31.0646 79.9844 30.2087C79.8588 31.1867 79.6078 32.0426 80.3611 33.1429C80.8633 33.632 81.3658 33.632 81.868 33.7541C82.6213 33.7541 83.3748 33.5097 84.0027 33.1429C84.2539 33.0206 84.7561 32.6538 85.1328 32.1649C85.384 31.9203 85.635 31.6758 85.8863 31.4312C86.2629 31.0646 86.3885 30.82 86.6397 30.5755L97.1877 18.1052C97.4387 17.7384 97.8155 17.4939 98.0666 17.127C98.5688 16.7604 98.9456 16.5158 99.1967 16.2713C99.5735 16.149 100.076 15.9045 100.578 16.3936C101.08 16.8827 100.955 17.3716 100.829 17.9829C100.578 18.8387 99.699 19.6945 99.1967 20.4281C95.6807 24.8293 92.0391 29.1084 88.5232 33.5097C89.9045 33.5097 91.2858 33.5097 92.5416 33.5097L102.085 21.2838C102.838 20.3058 103.843 19.4501 104.847 18.3496C105.726 17.4939 106.605 16.8827 107.484 16.3936C107.736 16.2713 107.987 16.2713 108.238 16.2713C108.489 16.2713 108.74 16.2713 108.866 16.5158C108.991 16.6381 108.991 16.8827 109.117 17.0048C109.117 17.3716 108.991 17.9829 108.615 18.5942C108.238 19.0832 107.987 19.6945 107.484 20.1835C103.843 24.707 100.076 29.2306 96.4342 33.7541C97.6899 33.7541 99.0712 33.7541 100.327 33.7541C103.717 29.4752 107.108 25.1961 110.498 20.7949C110.624 20.6726 110.875 20.3058 111.126 20.0613C111.628 19.5722 112.13 18.8387 112.884 18.1052C113.261 17.7384 113.637 17.3716 114.014 17.2493C114.516 17.0048 115.019 16.6381 115.647 16.7604C115.898 16.7604 116.023 16.7604 116.149 17.0048C116.274 17.127 116.274 17.2493 116.274 17.3716C116.274 17.4939 116.274 17.7384 116.149 17.9829C116.149 18.1052 116.023 18.3496 116.023 18.4719C115.898 18.8387 115.521 19.2055 115.27 19.6945C113.888 21.4061 112.507 22.9955 111.252 24.707C111.126 24.8293 111 25.0738 110.875 25.1961C110.749 25.3184 110.624 25.5629 110.498 25.8075C110.372 26.0518 110.121 26.4187 109.87 26.7855C109.619 27.1523 109.494 27.519 109.368 27.8858C109.117 28.4972 108.866 28.8638 108.74 29.3529C108.489 30.2087 108.238 31.1867 108.74 32.2871C108.866 32.5315 108.991 32.6538 109.117 32.8983C109.745 33.5097 110.498 33.7541 111.252 33.8764C111.503 33.8764 111.754 33.8764 112.005 33.8764C112.382 33.8764 112.633 33.8764 112.884 33.7541C113.01 33.7541 113.135 33.632 113.386 33.632C113.888 33.5097 114.516 33.1429 115.144 32.7761C116.023 32.2871 116.902 31.4312 117.781 30.4532C118.032 30.0864 118.284 29.8418 118.66 29.2306C119.037 28.6193 119.665 27.8858 120.167 27.03C121.8 24.4626 122.804 22.1396 123.558 19.6945C123.809 18.8387 123.934 17.9829 124.06 17.3716C124.185 16.7604 124.185 16.3936 124.311 16.0267C124.437 14.9264 124.562 13.7039 124.311 12.6036C124.185 11.6255 123.934 10.6474 123.558 9.66934C123.432 9.42479 123.306 9.05813 123.181 8.93586C122.93 8.44677 122.679 8.20222 122.302 7.83556C122.176 7.71329 121.925 7.46875 121.8 7.34647C121.548 7.10193 121.297 6.85738 120.921 6.73511C119.539 5.75708 118.158 5.39042 116.651 5.39042C115.521 5.39042 114.14 5.51254 112.884 6.1239C112.507 6.24617 112.005 6.49072 111.754 6.61299C111 6.36845 110.875 6.49072 110.624 6.61299C110.121 6.97965 109.494 7.46874 109.242 7.95784C108.615 9.05813 108.238 10.2807 108.615 11.6255C108.74 11.8699 108.866 12.1145 108.991 12.359C109.117 12.6036 109.368 12.7258 109.494 12.8481C109.745 13.0927 109.87 13.0927 110.121 13.2148C110.498 13.3371 110.875 13.4593 111.377 13.4593C111.879 13.4593 112.507 13.4593 113.01 13.2148C113.261 13.0927 113.386 13.0927 113.637 12.8481C113.888 12.6036 114.265 12.359 114.642 11.9922C115.019 11.6255 115.27 11.2587 115.521 10.7696C115.772 10.2807 115.898 9.91388 116.023 9.42479L115.898 9.30252C115.647 9.91389 115.27 10.403 114.768 11.0142C114.265 11.5033 113.637 11.9922 113.135 12.2368C112.758 12.359 112.507 12.4813 112.256 12.4813C111.754 12.6036 111.628 12.6036 111.252 12.6036C110.875 12.6036 110.624 12.4813 110.247 12.359C110.121 12.359 110.121 12.2368 109.996 12.1145C109.745 11.8699 109.494 11.381 109.494 11.0142C109.368 10.1584 109.619 9.05813 110.373 8.20222C110.624 7.95784 110.875 7.71329 111.126 7.46874C111.377 7.2242 111.628 7.10193 112.005 6.85738C113.763 6.00163 115.647 5.75708 117.53 6.1239C118.409 6.36845 119.414 6.7351 120.293 7.46874C120.418 7.59102 120.669 7.83556 120.795 7.95784C120.921 8.07995 121.046 8.3245 121.297 8.56904C121.548 9.05814 121.925 9.79161 122.176 10.6474C122.427 11.381 122.553 12.1145 122.553 12.8481C122.553 13.2148 122.553 13.4593 122.553 13.9484C122.553 14.8042 122.553 15.7822 122.427 16.7604C122.427 17.2493 122.302 17.7384 122.176 18.3496C121.925 19.4501 121.548 20.917 121.046 22.1396C120.795 22.751 120.544 23.3623 120.167 24.0958C119.79 24.8293 119.414 25.6852 118.911 26.4187C118.409 27.2744 117.907 28.0081 117.53 28.4972C117.153 28.9861 116.902 29.3529 116.651 29.5974C116.4 29.8418 116.149 30.2087 115.898 30.4532C115.144 31.3089 114.391 31.798 113.637 32.1649C113.135 32.4092 112.507 32.6538 112.005 32.6538C111.754 32.6538 111.377 32.6538 111.252 32.6538C111 32.6538 110.875 32.6538 110.749 32.5315C109.996 32.0426 110.121 31.4312 110.247 30.82C110.373 30.5755 110.498 30.2087 110.749 29.9641C110.875 29.8418 111 29.5974 111.503 28.9861C112.005 28.2526 113.01 27.1523 113.889 25.9297C115.144 24.2181 116.274 22.5064 117.153 20.7949C117.405 20.3058 117.53 19.939 117.656 19.5722C118.032 18.4719 118.158 17.4939 117.405 16.3936C117.153 16.0267 116.777 15.9045 116.526 15.7822C115.898 15.5378 115.27 15.6601 114.642 15.9045C114.391 16.0267 114.014 16.149 113.637 16.3936C113.386 16.5158 113.135 16.6381 112.884 16.7604C112.382 17.127 111.754 17.6161 111.126 18.2275C110.749 18.5942 110.372 18.8387 110.121 19.2055C110.247 18.7164 110.247 18.3496 110.373 17.8607C110.373 17.6161 110.373 17.3716 110.373 17.2493C110.373 16.7604 110.372 16.5158 110.121 16.149C110.121 16.0267 109.996 15.9045 109.87 15.9045C109.619 15.6601 109.494 15.5378 109.368 15.5378C109.242 15.4155 108.991 15.4155 108.615 15.4155C107.736 15.2933 106.857 15.7822 105.978 16.2713C105.099 16.8827 103.968 17.6161 103.09 18.5942C102.838 18.8387 102.462 19.2055 102.21 19.5722C102.462 18.7164 102.587 17.9829 102.462 17.127C102.336 16.7604 102.21 16.3936 101.959 16.0267C100.955 15.0487 99.8246 15.4155 98.5688 15.9045C98.0666 16.149 97.5643 16.5158 97.0621 17.0048C93.0438 21.6507 89.151 26.4187 85.1328 31.1867C84.8817 31.4312 84.6305 31.6758 84.3793 31.9203C84.1283 32.1649 83.8771 32.2871 83.7515 32.4092C83.3748 32.6538 82.9981 32.7761 82.6213 32.6538C82.4959 32.6538 82.2447 32.5315 82.1191 32.4092C81.868 32.0426 81.868 31.6758 81.9935 31.309C82.1191 30.9423 82.2447 30.6977 82.3703 30.3309C82.4959 30.0864 82.6213 29.9641 82.6213 29.7197C82.6213 29.7197 82.7469 29.5974 84.6305 27.2744C86.5141 24.9515 90.2812 20.3058 93.9227 15.6601C92.667 15.6601 91.4114 15.6601 90.7836 15.6601C90.1557 15.6601 90.1557 15.6601 90.1557 15.6601C89.6533 16.2713 89.2766 16.7604 88.7744 17.3716C88.9 16.8826 88.9 16.3936 88.3977 15.9045C88.1465 15.6601 87.5186 15.4155 87.2676 15.4155C87.142 15.4155 87.142 15.4155 86.8908 15.4155C86.5141 15.4155 85.6351 15.5378 85.0072 15.6601C84.6305 15.7822 84.3793 15.9045 83.8771 16.0267C82.9981 16.3936 81.4912 17.0048 80.3611 17.8607C79.4822 18.5942 78.2264 19.5722 76.9707 20.7949C76.3428 21.4061 75.8406 22.1396 75.3383 22.751C74.8361 23.4844 74.3336 24.2181 73.957 24.707C73.5803 25.1961 73.4547 25.5629 73.2035 25.9297C72.5757 27.03 72.0734 28.0081 71.3199 29.1084C71.0689 29.4752 70.8177 29.7197 70.5666 30.0864C70.0644 30.6977 69.5619 31.1867 68.9342 31.5535C68.683 31.798 68.3064 31.9203 68.0552 32.1649C67.5529 32.4092 67.3017 32.5315 66.925 32.5315C66.7994 32.5315 66.5484 32.5315 66.4228 32.5315C66.1716 32.5315 66.046 32.5315 65.7949 32.4092C65.6693 32.4092 65.6693 32.2871 65.5437 32.1649C65.4181 31.9203 65.4181 31.5535 65.5437 31.1867C65.7949 30.5755 66.2972 29.5975 67.0506 28.8638L77.8496 15.5378H73.957C70.441 20.0613 66.925 24.707 63.2835 29.2306C63.1578 29.3529 63.1578 29.4752 62.9068 29.5974C62.7812 29.7197 62.53 29.9641 62.2789 30.2087C62.0277 30.4532 61.7767 30.6977 61.6511 30.9423C60.8976 31.6758 60.2697 32.1649 59.5163 32.5315C59.1396 32.6538 58.3861 32.7761 58.0095 32.5315C57.8839 32.5315 57.7583 32.4092 57.7583 32.4092C57.5072 32.2871 57.6328 32.1649 57.5072 32.1649C57.5072 32.0426 57.3816 31.798 57.5072 31.6758C57.6328 31.1867 58.0095 30.2087 58.6374 29.4752C64.7904 22.1396 70.8177 14.8042 76.8451 7.46874H72.3246L56.0003 28.6193C56.0003 28.8638 55.7492 29.2306 55.498 29.4752ZM73.957 31.4312C73.957 31.309 73.957 31.1867 74.0826 30.9423C74.0826 30.82 74.2082 30.6977 74.3336 30.3309C74.4593 30.0864 74.7105 29.5975 74.8361 29.1084C75.0871 28.6193 75.3383 28.2526 75.715 27.6412C76.0916 27.03 76.5941 26.1741 77.2219 25.4406C77.8496 24.707 78.4775 23.8513 78.9799 23.24C79.4822 22.6287 79.8588 22.1396 80.3611 21.6507C80.7379 21.1616 81.2402 20.6726 81.6168 20.3058C81.9935 19.939 82.3703 19.5722 82.7469 19.2055C83.1237 18.8387 83.5004 18.5942 83.7515 18.2275C84.3793 17.7384 84.7561 17.3716 85.2584 17.127C85.5094 17.0048 85.7607 16.7604 86.0119 16.7604C86.3885 16.5158 86.6397 16.5158 86.8908 16.3936C87.2676 16.2713 87.6442 16.2713 88.0209 16.6381C88.3977 17.127 88.2721 17.4939 88.1465 18.1052C88.0209 18.5942 87.5186 19.4501 87.142 20.1835C87.0164 20.4281 86.8908 20.5504 86.6397 20.917C86.1373 21.6507 85.384 22.751 84.6305 23.6067L81.1145 28.2526C80.9889 28.3749 80.8633 28.4972 80.7379 28.6193C80.6123 28.7415 80.4867 28.8638 80.2355 29.1084C79.9844 29.3529 79.7332 29.5975 79.4822 29.8418C78.6031 30.6978 77.9752 31.309 77.2219 31.798C76.3428 32.2871 75.4638 32.7761 74.5849 32.5315C74.2082 32.2871 74.3336 32.0426 74.3336 31.798C73.8314 31.6758 73.8314 31.5535 73.957 31.4312Z" fill="white"/>
<path fill-rule="evenodd" clip-rule="evenodd" d="M20.3407 38.0331C19.7129 38.0331 19.085 38.0331 18.2061 38.0331C17.327 38.0331 16.3225 37.9108 15.1924 37.6663C14.1879 37.4217 13.1832 37.0549 12.1787 36.566C11.2997 36.0769 10.4207 35.4657 9.79281 34.8543C9.16494 34.3654 8.78829 33.8763 8.41147 33.3872C8.03482 32.8982 7.65816 32.4092 7.40695 31.9201C7.1559 31.4311 6.9047 30.942 6.65349 30.4531C6.27683 29.5972 6.15123 29.2305 5.90018 28.4969C5.77457 28.2524 5.77457 27.8857 5.64897 27.5189C7.0303 27.7634 8.53708 27.6411 10.044 27.0298C10.1695 27.0298 10.1695 26.9075 10.2951 26.9075C10.4207 26.7852 10.4207 26.7852 10.6719 26.7852C11.0485 27.0298 11.2997 27.2743 11.6764 27.3966C12.0531 27.5189 12.3043 27.6411 12.6809 27.7634C13.0577 27.7634 13.3088 27.8857 13.6854 27.8857C14.1879 27.8857 14.5645 27.7634 14.9412 27.6411C15.1924 27.6411 15.318 27.5189 15.6946 27.3966C16.0713 27.2743 16.4481 27.0298 16.9504 26.7852C17.327 26.5408 17.8293 26.2963 18.2061 25.9295C18.5828 25.5627 18.9596 25.3183 19.2106 24.9515C19.8385 24.2178 20.4663 23.3621 20.9686 22.5063C21.2198 22.0172 21.4709 21.6504 21.7221 21.1615C22.2243 20.1834 22.601 18.9609 22.9778 17.8604C23.1034 17.2492 23.2289 16.7601 23.3545 16.2712C23.4801 15.293 23.6057 14.6818 23.6057 13.826C23.6057 13.4592 23.6057 13.0924 23.6057 12.7256C23.4801 11.8698 23.3545 11.2586 22.7266 10.525C22.3499 10.2804 21.9731 10.0359 21.7221 9.79152C22.8522 9.30242 23.9823 8.81333 25.1124 8.56894C25.7403 8.44667 26.3682 8.3244 26.7448 8.20212C27.6239 8.07985 28.2518 7.95758 29.0052 7.95758C30.3864 7.95758 31.7677 7.95758 33.2745 8.81333C32.8979 9.05788 32.3956 9.4247 32.0188 9.79152C31.1399 10.4027 30.512 11.2586 29.7585 11.9921C28.8796 12.9701 28.2518 13.9482 27.6239 14.9263C27.2472 15.4153 26.996 15.9044 26.2426 17.3715C25.4893 18.8386 24.2335 21.2837 23.6057 22.6286C22.8522 24.0957 22.7266 24.4624 22.4755 24.9515C21.9731 25.9295 21.5965 27.0298 20.9686 28.1301C20.7176 28.7414 20.3407 29.3526 20.0897 29.7195C19.8385 30.0863 19.7129 30.3308 19.5873 30.4531C19.2106 30.942 18.9596 31.4311 18.4571 31.9201C18.3317 32.0423 18.0805 32.1646 17.9549 32.2869C17.2016 32.1646 16.4481 32.0423 15.569 32.1646C15.4436 32.1646 15.1924 32.2869 15.0668 32.4092C14.9412 32.5314 14.8157 32.6537 14.6901 32.6537C14.4389 32.8982 14.4389 33.0205 14.4389 33.2649C14.4389 33.5094 14.5645 33.6317 14.8157 33.754C15.1924 33.8763 15.569 33.9985 15.9458 34.1208C16.3225 34.1208 16.6992 34.1208 17.076 33.9985C17.4526 33.8763 17.8293 33.754 18.0805 33.6317C18.4571 33.3872 18.5828 33.3872 18.834 33.2649C19.5873 33.3872 20.3407 33.3872 21.0942 33.1426C22.0987 32.8982 22.9778 32.4092 23.8567 31.6757C24.359 31.3089 24.8614 30.8198 25.3637 30.4531C25.6147 30.2086 25.7403 29.964 26.117 29.5972C26.4938 29.2305 26.8704 28.6192 27.3727 28.0078C27.875 27.3966 28.2518 26.7852 28.6284 26.4186C29.0052 25.9295 29.1307 25.6849 29.3819 25.3183C29.6329 24.9515 29.7585 24.7069 30.2608 23.8512C30.7632 22.9952 31.6421 21.5283 32.27 20.5501C32.8979 19.4498 33.4001 18.8386 33.7768 18.105C34.2792 17.3715 34.6559 16.7601 35.0325 16.2712C35.4093 15.7821 35.5349 15.5375 35.786 15.293C36.0372 15.0486 36.1626 14.8041 36.2882 14.5595C36.5395 14.1927 36.7905 13.9482 37.0417 13.7038C37.1673 13.5815 37.2929 13.4592 37.4184 13.337C37.2929 13.7038 36.9161 14.0704 36.7905 14.4373C36.6651 14.6818 36.5395 14.9263 36.4138 15.293C36.2882 15.5375 36.1626 15.7821 35.786 16.6378C35.4093 17.4938 34.7815 18.9609 34.4046 19.8166C34.028 20.7946 33.7768 21.1615 33.6513 21.6504C33.5257 22.1395 33.2745 22.5063 33.1491 22.873C32.8979 23.3621 32.8979 23.4843 32.7723 23.8512C32.1444 25.196 31.5165 26.5408 30.7632 27.8857C30.6376 28.0078 30.6376 28.2523 30.512 28.3746C30.2608 28.8637 29.8841 29.5972 29.5075 30.2086C29.0052 31.0643 28.5028 31.7979 27.7495 32.5314C26.996 32.4092 26.2426 32.2869 25.4891 32.4092C25.3637 32.4092 25.1124 32.5314 24.9868 32.5314C24.7358 32.6537 24.6102 32.6537 24.4846 32.776C24.359 32.8982 24.2335 33.0205 24.2335 33.1426C24.1079 33.3872 24.359 33.754 24.7358 33.9985C24.8614 34.1208 24.9868 34.1208 25.2381 34.1208C25.3637 34.1208 25.3637 34.1208 25.6147 34.1208C25.9915 34.1208 26.6194 34.1208 27.2472 33.8763C27.4983 33.754 27.7495 33.6317 28.0006 33.5094C28.2518 33.3872 28.5028 33.5094 28.6284 33.6317C28.8796 33.6317 29.0052 33.6317 29.2563 33.754C30.1354 33.8763 31.5165 33.6317 32.5212 33.0205C33.0235 32.6537 33.6513 32.2869 34.1536 31.7979C34.4046 31.5534 34.6559 31.3089 35.1581 30.8198C35.6604 30.3308 36.2882 29.5972 37.0417 28.7414C37.6696 28.0078 38.423 27.1521 39.8042 25.3183C41.1855 23.4843 43.4458 20.6724 45.0782 18.5941C46.7107 16.5156 47.7152 15.293 48.7198 14.0704C49.7243 12.8479 50.8546 11.6253 51.6079 10.8918C52.3613 10.1582 52.738 9.79151 53.1148 9.42469C53.4915 9.05787 53.8681 8.69122 54.2449 8.44667C54.8728 7.95758 55.2495 7.59076 55.7517 7.34637C56.0029 7.2241 56.254 6.97955 56.6308 6.85728C57.3843 6.49046 58.3888 6.00153 59.2677 5.63471C59.7701 5.51244 60.2724 5.26789 60.649 5.14562C61.4025 4.90107 61.6536 4.90107 62.1558 4.77896C62.407 4.77896 62.6582 4.77896 62.9093 4.65669C63.2861 4.65669 63.6627 4.65669 64.0394 4.65669C64.4162 4.65669 64.7929 4.65669 65.1695 4.65669C65.7974 4.65669 66.1742 4.77896 66.6765 4.90107C67.1787 5.02334 67.681 5.26789 68.3089 5.51244C68.9367 5.75698 69.439 6.00153 69.9412 6.36819C70.1924 6.49046 70.4435 6.61273 70.5691 6.73501C70.9459 6.97955 71.0714 7.10183 71.3226 7.2241C71.4482 7.2241 71.4482 7.10183 71.3226 6.97955C71.0714 6.85728 70.6947 6.61273 70.4435 6.24592C69.5646 5.39016 68.5601 4.77896 67.5554 4.28987C67.1787 4.16759 66.8021 3.92305 66.4253 3.80077C65.4207 3.43411 64.0394 3.18957 62.9093 3.18957C60.1468 3.18957 57.2587 4.16759 54.496 6.00153C53.9937 6.36819 53.4915 6.61273 52.9892 6.97955C52.487 7.34637 52.1101 7.71303 51.3568 8.3244C50.6034 8.9356 49.7243 9.79151 48.8454 10.7695C47.9663 11.7476 47.0874 12.7256 46.2083 13.826C45.3294 15.0486 44.1993 16.3935 43.1948 17.7381C41.6878 19.8166 40.181 21.8949 38.6741 23.9734C38.1718 24.7069 37.6696 25.3183 37.2929 25.8072C36.9161 26.2963 36.6651 26.7852 36.2882 27.1521C35.6604 28.0078 34.9071 28.8637 34.028 29.8417C33.5257 30.3308 33.0235 30.8198 32.6467 31.1866C32.27 31.5534 32.0188 31.6757 31.7677 31.9201C30.6376 32.6537 29.5075 33.2649 28.3774 32.8982C28.8796 32.5314 29.5075 32.0423 30.0098 31.5534C30.2608 31.3089 30.512 31.0643 30.8887 30.6975C31.2655 30.3308 31.6421 29.8417 32.1444 29.3526C32.5212 28.8637 33.0235 28.3746 33.2745 28.0078C33.5257 27.6411 33.7768 27.3966 34.028 27.0298C34.2792 26.7852 34.4046 26.4186 34.6559 25.9295C34.9071 25.4404 35.2837 24.8292 35.5349 24.2178C35.9116 23.6066 36.1626 22.873 36.5395 22.1395C36.9161 21.406 37.2929 20.5501 37.6696 19.6944C38.0462 18.8386 38.423 17.9827 38.6741 17.2492C39.1764 15.9044 39.5532 14.9263 40.0554 13.826L41.6878 10.2804C41.8134 9.91379 41.939 9.66924 42.1901 9.30242C42.3157 8.9356 42.5669 8.69122 42.6923 8.44667C42.9435 8.07985 43.0691 7.83531 43.3202 7.59076C43.4458 7.46849 43.697 7.2241 43.697 7.10183L43.5714 6.97955C43.5714 6.97955 43.4458 6.97955 43.3202 6.97955C42.9435 7.10183 42.3157 7.34637 41.8134 7.59076C40.4321 8.56894 39.0509 9.54697 37.7952 11.0141C36.9161 11.8698 36.1626 12.8479 35.5349 13.7038C35.1581 14.1927 34.9071 14.6818 34.5303 15.0486C34.2792 15.4153 34.028 15.7821 33.9024 16.1489C33.6513 16.5156 33.5257 16.8824 32.8979 17.7381C32.27 18.7163 31.3911 20.3056 30.6376 21.6504C29.8842 22.9952 29.2563 23.8512 28.6284 24.8292C28.0006 25.8072 27.3727 26.6631 26.8704 27.3966C26.3682 28.0078 26.117 28.4969 25.7403 28.8637C25.3637 29.2305 25.1124 29.5972 24.7358 29.964C23.6057 31.1866 22.4755 31.798 21.2198 32.4092C20.843 32.5314 20.3407 32.6537 19.8385 32.6537C19.5873 32.6537 19.4618 32.6537 19.3362 32.6537C20.2151 31.9201 21.0942 31.3089 21.8477 30.3308C22.601 29.4749 23.4801 28.3746 24.1079 27.2743C24.4846 26.7852 24.7358 26.2963 25.4891 24.9515C26.2426 23.6066 27.3727 21.406 28.1262 20.0612C28.754 18.7163 29.0052 18.3495 29.2563 17.9827C29.5075 17.616 29.6329 17.2492 30.0098 16.7601C30.2608 16.2712 30.7632 15.5376 31.1399 14.8041C31.5165 14.0704 31.8934 13.4592 32.27 12.8479C32.6467 12.2367 32.8979 11.8698 33.1491 11.3807C33.0235 11.0141 33.4001 10.6473 33.5257 10.2804C33.9024 9.79151 34.1536 9.54697 34.4046 9.18015C34.6559 9.18015 35.0325 9.18015 35.2837 9.05787C35.6604 9.05787 36.0372 9.05787 36.2882 9.05787C36.6651 8.9356 36.9161 8.9356 37.2929 8.81333C37.6696 8.69122 38.1718 8.56894 38.5485 8.20212C39.0509 7.71303 39.1764 7.34637 38.7997 6.97955C38.6741 6.61273 38.423 6.61273 38.2974 6.61273C38.0462 6.61273 37.6696 6.61273 37.2929 6.61273C36.7905 6.73501 36.0372 7.10183 35.2837 7.46849C35.0325 7.59076 34.7815 7.83531 34.5303 7.95758C34.028 7.59076 33.5257 7.34637 33.0235 7.10183C32.7723 6.97955 32.5212 6.85728 32.0188 6.73501C31.5165 6.61273 31.0143 6.36819 30.3864 6.24592C28.0006 5.75698 25.3637 6.00153 22.8522 6.73501C22.2243 6.97955 21.7221 7.10183 21.2198 7.34637C20.3407 7.71303 19.9641 7.95758 19.3362 8.3244C18.9596 8.20212 18.5828 8.20212 18.3317 8.20212C17.9549 8.20212 17.327 8.20212 16.6992 8.3244C15.0668 8.69122 13.4344 9.54697 11.802 10.6473C11.1741 11.1364 10.4207 11.7476 9.6672 12.4812C9.29055 12.8479 8.91389 13.2147 8.66268 13.5815C8.28603 13.9482 8.03482 14.4373 7.78361 14.8041C7.28135 15.5376 7.0303 16.0266 6.65349 16.6378C6.52804 16.8824 6.40244 17.2492 6.27683 17.4938C6.15123 17.7381 6.02562 18.105 5.77457 18.4718C5.39792 19.3275 5.0211 20.4278 4.77005 21.5283C4.39324 23.1175 4.26763 24.4624 4.39324 25.9295C4.14219 25.8072 3.89098 25.5627 3.51432 25.3183C3.38872 25.196 3.26311 25.0737 3.13751 24.8292C2.88646 24.3401 2.50964 23.7289 2.25859 23.2398C1.75629 21.8949 1.63071 20.5501 1.75629 19.083C1.88186 18.5941 1.88184 17.9827 2.13299 17.4938C2.3842 16.5156 2.76085 15.6598 3.26311 14.8041C3.76537 13.9482 4.26763 13.2147 4.8955 12.4812C5.14671 12.1144 5.52336 11.7476 6.02562 11.2586C7.0303 10.2804 8.78829 8.9356 10.2951 7.8353C11.6764 6.73501 13.0577 6.00153 14.4389 5.39016C15.1924 5.02334 15.9458 4.77896 16.8248 4.41214C18.7084 3.80077 20.9686 3.0673 23.1034 2.5782C25.6147 2.08927 28.1262 1.84473 30.512 1.84473C32.8979 1.84473 35.4093 2.08927 37.7952 2.82275C38.5485 3.06729 39.302 3.18957 39.8042 3.43411C40.4321 3.6785 40.9343 3.80077 41.3112 4.04532C43.0691 4.65668 44.7015 5.51244 46.4595 6.73501L46.7107 6.49046C46.0829 6.00153 45.455 5.51244 44.7015 5.14562C44.0737 4.65669 43.3202 4.28987 42.5669 3.92305C41.8134 3.55639 41.0599 3.18957 40.3065 2.94502C38.6741 2.33366 36.7905 1.72245 35.0325 1.35563C34.1536 1.23336 33.1491 1.11109 32.3956 0.988973C31.5165 0.8667 30.8887 0.866699 30.1354 0.866699C29.3819 0.866699 28.6284 0.866699 27.7495 0.866699C25.8659 0.866699 23.4801 0.988973 21.3454 1.4779C20.2151 1.72245 19.2106 1.967 18.2061 2.21154C17.2016 2.45593 16.3225 2.82275 15.318 3.0673C14.4389 3.43412 13.56 3.80077 12.6809 4.16759C11.802 4.53441 10.9229 5.02334 10.1695 5.51244C9.79281 5.63471 9.16494 6.00153 8.53708 6.49046C7.90921 6.97955 7.28135 7.46848 6.77909 7.8353C5.77457 8.56894 5.27231 9.18015 4.77005 9.91379C4.39324 10.2804 4.14219 10.6473 3.76537 11.0141C2.88646 12.3589 2.00738 13.9482 1.37957 15.4153C0.877292 16.7601 0.375 18.3495 0.375 19.8166C0.375 21.1615 0.500573 22.5063 1.25399 23.9734C1.50514 24.4624 1.75629 24.8292 2.00738 25.196C2.76085 26.0518 3.63977 26.7852 4.51884 27.1521C4.8955 29.1083 5.39776 31.0643 6.77909 33.0205C7.0303 33.5095 7.40695 33.8763 7.90921 34.3654C8.41147 34.8543 9.03934 35.5879 9.79281 36.1991C10.5463 36.8105 11.4252 37.2994 12.3043 37.6663C13.1832 38.0331 14.0623 38.3997 14.6901 38.522C15.318 38.7666 15.6946 38.7666 16.0713 38.8888C16.8248 39.0111 17.5782 39.0111 18.3317 39.1334C18.7084 39.1334 19.085 39.1334 19.7129 39.1334C20.3407 39.1334 21.2198 39.1334 22.2243 39.1334C23.2289 39.1334 24.4846 39.1334 25.7403 39.1334L192.875 39.0111C192.875 38.7666 192.875 38.3997 192.875 38.1553C135.489 38.0331 77.9779 38.0331 20.3407 38.0331ZM18.5828 11.2586C19.2106 10.8918 19.9641 10.525 20.5919 10.2804C20.843 10.4027 21.2198 10.525 21.4709 10.8918C21.7221 11.1364 21.9731 11.503 21.9731 11.7476C22.601 14.0704 22.0987 16.3935 21.3454 18.4718C20.843 20.0612 20.0897 21.5283 19.085 22.9952C18.7084 23.4843 18.2061 24.0957 17.9549 24.3401C17.5782 24.7069 17.4526 24.8292 17.2016 25.0737C16.0713 26.0518 14.9412 26.5408 13.9366 26.6631C13.3088 26.6631 12.5553 26.7852 11.9275 26.4186L13.56 24.9515C14.0623 24.4624 14.5645 23.8512 14.9412 23.3621C15.318 22.7509 15.6946 22.1395 16.0713 21.6504C16.3225 21.1615 16.5737 20.7947 16.6992 20.4278C17.076 19.6944 17.327 18.8386 17.5782 18.2272C17.7038 17.9827 17.7038 17.7381 17.7038 17.4938C17.7038 17.2492 17.8293 17.1269 17.8293 17.0047C17.8293 16.8824 17.7038 16.8824 17.5782 16.8824C17.2016 18.105 16.6992 19.2053 15.9458 20.4278C15.1924 21.7727 14.0623 23.2398 12.9321 24.3401C12.5553 24.7069 12.1787 24.9515 11.9275 25.196C11.6764 25.4404 11.4252 25.5627 11.1741 25.6849C10.7973 25.196 10.5463 24.5846 10.4207 24.0957C10.044 22.5063 10.4207 20.9169 11.0485 19.3275C11.2997 18.5941 11.6764 18.105 12.1787 17.2492C12.4299 16.8824 12.9321 16.2712 13.3088 15.7821C13.6854 15.293 14.1879 14.8041 14.6901 14.315C15.1924 13.826 15.6946 13.4592 16.1969 12.9701C16.8248 12.4812 17.7038 11.7476 18.5828 11.2586ZM5.64897 25.5627C5.64897 24.8292 5.64897 24.2178 5.64897 23.3621C5.64897 22.873 5.77457 22.384 5.90018 21.7727C6.27683 20.1834 6.77909 18.5941 7.65816 17.1269C8.16042 16.2712 8.66268 15.4153 9.29055 14.5595C9.5416 14.1927 9.79281 13.826 10.1695 13.4592C11.1741 12.3589 12.1787 11.6253 12.9321 11.0141C13.811 10.4027 14.6901 9.91379 15.4436 9.66924C15.8202 9.54697 16.3225 9.30242 16.6992 9.30242C17.076 9.18015 17.5782 9.18015 17.9549 9.18015C17.327 9.54697 16.8248 9.91379 16.3225 10.4027C15.8202 10.7695 15.318 11.2586 14.8157 11.6253C14.4389 11.9921 14.1879 12.2367 13.811 12.4812C13.56 12.7256 13.3088 12.9701 12.9321 13.337C12.6809 13.5815 12.3043 13.9482 12.0531 14.315C11.802 14.6818 11.4252 15.0486 11.1741 15.4153C10.6719 16.1489 10.2951 16.7601 9.91841 17.2492C9.6672 17.7381 9.41615 18.105 9.29055 18.4718C9.03934 18.9609 8.91389 19.5721 8.78829 20.1834C8.78829 20.4278 8.66268 20.6724 8.66268 20.9169C8.53708 21.406 8.53708 21.895 8.66268 22.6286C8.66268 22.873 8.78829 23.1175 8.78829 23.3621C8.91389 23.8512 9.03934 24.4624 9.29055 24.9515C9.41615 25.196 9.41615 25.3183 9.41615 25.4404C9.5416 25.6849 9.6672 25.9295 9.79281 26.174C9.41615 26.4186 9.16494 26.5408 8.78829 26.6631C7.65816 27.0298 6.52804 27.1521 5.52336 26.6631C5.64897 26.174 5.64897 25.9295 5.64897 25.5627Z" fill="white"/>
<path fill-rule="evenodd" clip-rule="evenodd" d="M56.2523 11.503C56.6291 11.503 57.2568 11.3807 57.8846 10.8916C58.1358 10.7693 58.2614 10.647 58.3871 10.4025C58.7637 10.0358 59.0148 9.66902 59.1404 9.3022C59.3916 8.81327 59.3916 8.32418 59.266 7.83508C59.266 7.71281 59.1404 7.5907 59.1404 7.46843C58.7637 6.97933 58.0102 6.97933 57.508 7.10161C57.2568 7.10161 56.8801 7.34615 56.5035 7.5907C55.8756 7.95736 55.2477 8.69099 55.1221 9.3022C55.1221 9.42447 54.9965 9.66902 54.9965 9.79129C54.9965 10.2802 54.8709 10.647 55.4988 11.1361C55.8756 11.3807 56.0012 11.503 56.2523 11.503Z" fill="white"/>
<path fill-rule="evenodd" clip-rule="evenodd" d="M178.684 33.7537H192.873V24.951H187.096V5.38985H178.684V33.7537ZM147.668 5.26758H139.128V15.2927H135.361V5.26758H126.822V33.7537H135.361V22.3836H139.128V33.6314H147.542V5.26758H147.668ZM163.239 33.7537H177.428V24.951H171.902V5.26758H163.363V33.7537H163.239ZM159.596 5.26758H151.183V33.7537H159.596V5.26758Z" fill="#FAD62E"/>
</svg>
