<svg width="147" height="42" viewBox="0 0 147 42" fill="none" xmlns="http://www.w3.org/2000/svg">
<path fill-rule="evenodd" clip-rule="evenodd" d="M11.0145 8.59873C10.3043 8.70902 9.63608 8.86099 9.00564 9.0511V0.5H0.75V30.6345C2.16268 31.1703 3.70446 31.6187 5.37151 31.9798C7.04241 32.3448 8.91448 32.527 10.988 32.527C12.8753 32.527 14.6145 32.2724 16.2057 31.7708C17.793 31.2653 19.1714 30.5013 20.3334 29.4752C21.4993 28.4567 22.4031 27.157 23.0487 25.5797C23.6942 24.0063 24.0169 22.1479 24.0169 20.0081C24.0169 18.4005 23.7815 16.8917 23.3069 15.4742C22.8359 14.0565 22.1524 12.829 21.2562 11.7876C20.36 10.75 19.2473 9.92918 17.9258 9.33249C16.6043 8.73581 15.112 8.43555 13.4448 8.43555C12.5296 8.43555 11.7208 8.48844 11.0145 8.59873ZM47.8004 14.7177V8.95598H51.0586V3.14505H59.3181V8.95598H62.8193L64.8586 14.7177H59.3181V23.9758C59.3181 24.7624 59.4054 25.3781 59.5763 25.819C59.751 26.2599 60.1345 26.4803 60.7345 26.4803C61.3003 26.4803 61.8434 26.3509 62.3598 26.1003C62.8801 25.8495 63.3433 25.5644 63.7535 25.249L65.8763 30.2581C64.8396 30.9839 63.7155 31.5313 62.5041 31.9112C61.2928 32.2876 59.8839 32.4775 58.2775 32.4775C56.9256 32.4775 55.7864 32.2952 54.8561 31.934C53.9295 31.5731 53.1814 31.0599 52.6156 30.3987C52.0497 29.7374 51.6473 28.9354 51.4117 27.9891C51.1765 27.0427 51.0586 25.99 51.0586 24.8271V14.7177H47.8004ZM40.2511 17.6478C40.156 16.4165 39.7878 15.4474 39.1422 14.7404C38.4966 14.0336 37.7182 13.6763 36.8068 13.6763C35.8612 13.6763 35.0371 14.0412 34.3271 14.7632C33.6208 15.4892 33.203 16.4506 33.0778 17.6478H40.2511ZM34.3741 25.2756C33.5388 24.5041 33.0907 23.4247 33.0261 22.0376H47.988C47.9576 17.4085 46.9286 13.9842 44.8969 11.7646C42.8691 9.54515 40.1387 8.43541 36.7096 8.43541C35.0425 8.43541 33.4931 8.7015 32.0615 9.23737C30.6298 9.77324 29.3956 10.5599 28.3552 11.6013C27.3147 12.6387 26.4983 13.9044 25.9021 15.4017C25.302 16.8992 25.0058 18.6056 25.0058 20.5288C25.0058 22.5126 25.3173 24.2494 25.9476 25.7468C26.578 27.2405 27.4286 28.487 28.4996 29.4751C29.5666 30.4709 30.816 31.2197 32.2514 31.7212C33.683 32.2231 35.2134 32.4775 36.8501 32.4775C38.202 32.4775 39.4211 32.3673 40.507 32.1469C41.5931 31.9265 42.5539 31.6111 43.3856 31.2007C44.2209 30.7939 44.9615 30.3265 45.607 29.8097C46.2526 29.289 46.826 28.7151 47.331 28.0841L42.2805 24.1164C41.6463 24.9031 40.9627 25.4884 40.226 25.8647C39.4855 26.2447 38.5969 26.431 37.5603 26.431C36.2691 26.431 35.2058 26.0471 34.3741 25.2756ZM9.00564 26.1459C9.35118 26.2446 9.693 26.3131 10.0234 26.3624C10.3537 26.4079 10.7373 26.4307 11.1779 26.4307C12.5943 26.4307 13.7411 25.9367 14.6221 24.9447C15.5031 23.9528 15.9436 22.4325 15.9436 20.384C15.9436 18.4002 15.5106 16.937 14.6486 15.9908C13.7828 15.0482 12.6891 14.5769 11.3676 14.5769C10.9272 14.5769 10.517 14.6149 10.1411 14.6946C9.76134 14.7705 9.38541 14.8734 9.00564 14.9987V26.1459Z" fill="white"/>
<path fill-rule="evenodd" clip-rule="evenodd" d="M62.4209 3.13354L72.6283 32.0062H78.9056L82.4904 19.9129L86.1245 32.0062H92.4473L100.616 8.95595H92.1663L88.7676 21.1899L85.2283 8.95595H79.8474L76.3081 21.1899L70.4069 3.13354H62.4209ZM112.908 30.2086L113.569 32.0062L120.507 32.006V17.4576C120.507 14.3716 119.61 12.0951 117.815 10.6319C116.022 9.16492 113.614 8.43512 110.595 8.43512C108.423 8.43512 106.559 8.75068 105.002 9.38153C103.445 10.0086 102.036 10.8752 100.779 11.9772L104.459 16.0856C105.214 15.489 105.993 15.0177 106.794 14.6681C107.599 14.3222 108.454 14.1512 109.369 14.1512C110.185 14.1512 110.895 14.3716 111.491 14.8125C112.088 15.2533 112.388 15.945 112.388 16.8914V17.4576C111.666 17.4882 110.869 17.5453 110.003 17.6212C109.137 17.701 108.203 17.8188 107.197 17.9784C106.095 18.1342 105.059 18.4003 104.083 18.7804C103.107 19.1566 102.248 19.6468 101.508 20.2435C100.771 20.8402 100.187 21.5662 99.7649 22.4137C99.3398 23.265 99.1271 24.2607 99.1271 25.3933C99.1271 26.4955 99.3131 27.4721 99.6929 28.3197C100.069 29.171 100.597 29.9045 101.273 30.5164C101.949 31.132 102.746 31.5957 103.657 31.9112C104.569 32.2228 105.56 32.3824 106.631 32.3824C108.047 32.3824 109.289 32.1696 110.36 31.744C111.427 31.3221 112.278 30.809 112.908 30.2086ZM124.177 35.2177C123.58 35.0277 123.06 34.8071 122.62 34.5564L120.543 40.128C121.454 40.5384 122.414 40.8691 123.421 41.1237C124.427 41.3745 125.528 41.5 126.725 41.5C128.613 41.5 130.257 41.1047 131.658 40.318C133.059 39.5313 134.168 38.1745 134.984 36.2553L146.501 8.95595H138.007L133.381 22.4137L128.71 8.95595H119.741L129.512 31.0105L128.19 33.9901C127.936 34.5564 127.628 34.9479 127.268 35.1683C126.908 35.3887 126.429 35.4989 125.828 35.4989C125.328 35.4989 124.776 35.4078 124.177 35.2177ZM112.389 21.5661C111.918 21.5963 111.444 21.6382 110.973 21.6837C110.502 21.7295 110.016 21.8015 109.511 21.8966C108.535 22.0524 107.844 22.3945 107.434 22.9114C107.023 23.4321 106.818 24.006 106.818 24.6368C106.818 25.2981 107.05 25.8417 107.506 26.2672C107.961 26.693 108.599 26.9019 109.416 26.9019C110.016 26.9019 110.555 26.8106 111.045 26.6207C111.531 26.4307 111.979 26.1799 112.389 25.8644V21.5661Z" fill="#A3D21A"/>
</svg>
