<svg width="131" height="42" viewBox="0 0 131 42" fill="none" xmlns="http://www.w3.org/2000/svg">
<path opacity="0.88" d="M18.102 18.2808C16.0175 16.209 13.5713 15.1941 10.6359 15.1941C7.70045 15.1941 5.2117 16.209 3.10588 18.2808C1.02125 20.3528 0.0214844 22.8053 0.0214844 25.7441C0.0214844 28.683 1.08505 31.1354 3.10588 33.2073C5.19038 35.2793 7.67913 36.2942 10.6146 36.2942C13.55 36.2942 16.0387 35.2581 18.1234 33.2073C20.0591 31.2835 21.08 29 21.2289 26.3149C21.2289 26.1247 21.2289 25.9345 21.2289 25.7441C21.2289 25.6596 21.2289 25.5538 21.2289 25.4482C21.1438 22.6573 20.1229 20.2894 18.102 18.2808ZM13.6989 28.7252C12.8693 29.5497 11.8058 29.9725 10.6359 29.9725C9.46595 29.9725 8.50881 29.5709 7.67914 28.7252C6.8496 27.9007 6.42417 26.907 6.42417 25.7441C6.42417 24.5813 6.8496 23.5876 7.67914 22.7631C8.4875 21.9385 9.48726 21.5156 10.6784 21.5156C11.8483 21.5156 12.848 21.9174 13.7202 22.7631C14.5497 23.5876 14.954 24.5813 14.954 25.7441C14.954 26.907 14.5286 27.9007 13.6989 28.7252Z" fill="#FC6200"/>
<path opacity="0.88" d="M39.4144 18.2808C37.3297 16.209 34.8836 15.1941 31.9481 15.1941C29.0126 15.1941 26.4814 16.209 24.4181 18.2808C22.3547 20.3528 21.3125 22.8053 21.3125 25.7441C21.3125 28.683 22.3336 31.1354 24.4181 33.2073C26.5027 35.2793 29.0126 36.2942 31.9481 36.2942C34.8836 36.2942 37.3511 35.2581 39.4144 33.2073C41.35 31.2835 42.371 29 42.52 26.3149C42.52 26.1247 42.52 25.9345 42.52 25.7441C42.52 25.6596 42.52 25.5538 42.52 25.4482C42.4562 22.6573 41.4351 20.2894 39.4144 18.2808ZM34.9899 28.7252C34.1604 29.5497 33.1393 29.9725 31.9481 29.9725C30.757 29.9725 29.7785 29.5709 28.9488 28.7252C28.1193 27.9007 27.6939 26.907 27.6939 25.7441C27.6939 24.5813 28.098 23.5876 28.9488 22.7631C29.7785 21.9385 30.7781 21.5156 31.9481 21.5156C33.118 21.5156 34.1604 21.9174 34.9899 22.7631C35.8194 23.5876 36.2449 24.5813 36.2449 25.7441C36.2449 26.907 35.8194 27.9007 34.9899 28.7252Z" fill="#FC6200"/>
<path opacity="0.88" d="M60.7318 18.2807C58.6684 16.2298 56.1797 15.2151 53.2655 15.2151C50.3513 15.2151 47.8201 16.23 45.7355 18.3018C43.651 20.3738 42.6299 22.8263 42.6299 25.7651C42.6299 28.7038 43.651 31.1564 45.7355 33.2283C47.8201 35.3003 50.33 36.3151 53.2655 36.3151C56.201 36.3151 58.6897 35.2791 60.7318 33.2283C62.6673 31.3044 63.7097 29.021 63.816 26.3359C63.816 26.1457 63.816 25.9553 63.816 25.7651C63.816 25.6805 63.816 25.5748 63.816 25.4691C63.7735 22.6571 62.7525 20.2892 60.7318 18.2807ZM56.3073 28.725C55.4777 29.5495 54.4567 29.9724 53.2442 29.9724C52.053 29.9724 51.0959 29.5707 50.2875 28.725C49.4792 27.8793 49.0326 26.9068 49.0326 25.7439C49.0326 24.5811 49.4367 23.5874 50.2875 22.7629C51.1171 21.9383 52.0743 21.5578 53.2442 21.5578C54.4142 21.5578 55.4564 21.9383 56.3073 22.7629C57.1581 23.5874 57.5622 24.5811 57.5622 25.7439C57.5622 26.9068 57.1368 27.9005 56.3073 28.725Z" fill="#FC6200"/>
<path opacity="0.88" d="M18.1019 3.56557C16.0172 1.4937 13.5498 0.5 10.5931 0.5C7.65765 0.5 5.1689 1.51489 3.08426 3.56557C0.999761 5.61639 0 8.09006 0 11.0289C0 13.9677 1.06356 16.4202 3.08426 18.4922C5.1689 20.564 7.65765 21.5366 10.5931 21.5366C13.5285 21.5366 16.0172 20.564 18.1019 18.4922C20.0375 16.5682 21.0585 14.2425 21.1861 11.5997C21.1861 11.4094 21.1861 11.2192 21.1861 11.0289C21.1861 10.9443 21.1861 10.8386 21.1861 10.754C21.1436 7.94205 20.1226 5.57416 18.1019 3.56557ZM13.6774 14.0099C12.8479 14.8346 11.8055 15.2362 10.6143 15.2362C9.44446 15.2362 8.48719 14.8346 7.65765 14.0099C6.82811 13.1854 6.40269 12.1917 6.40269 11.0289C6.40269 9.86604 6.8068 8.87234 7.65765 8.04783C8.48719 7.22332 9.46564 6.80047 10.6143 6.80047C11.8055 6.80047 12.8479 7.22332 13.6774 8.04783C14.5069 8.87234 14.9324 9.86604 14.9324 11.0289C14.9112 12.1917 14.5069 13.1854 13.6774 14.0099Z" fill="#FC6200"/>
<path opacity="0.88" d="M39.4146 3.56557C37.3301 1.4937 34.8838 0.5 31.9484 0.5C29.0129 0.5 26.4817 1.51489 24.4184 3.56557C22.3551 5.61639 21.334 8.09006 21.334 11.0289C21.334 13.9677 22.3551 16.4202 24.4396 18.4922C26.5242 20.564 29.0343 21.5366 31.9696 21.5366C34.9051 21.5366 37.3725 20.564 39.4359 18.4922C41.3716 16.547 42.3925 14.2425 42.5414 11.5997C42.5414 11.4094 42.5414 11.2192 42.5414 11.0289C42.5414 10.9443 42.5414 10.8386 42.5414 10.754C42.4563 7.94205 41.4354 5.57416 39.4146 3.56557ZM34.9902 14.0099C34.1605 14.8346 33.1396 15.2362 31.9484 15.2362C30.7571 15.2362 29.7787 14.8346 28.9492 14.0099C28.1196 13.1854 27.6942 12.1917 27.6942 11.0289C27.6942 9.86604 28.0983 8.87234 28.9492 8.04783C29.7787 7.22332 30.7784 6.80047 31.9484 6.80047C33.1183 6.80047 34.1605 7.22332 34.9902 8.04783C35.8198 8.87234 36.2452 9.86604 36.2452 11.0289C36.2239 12.1917 35.8198 13.1854 34.9902 14.0099Z" fill="#FC6200"/>
<path opacity="0.88" d="M60.7318 3.56557C58.6471 1.4937 56.1584 0.5 53.2655 0.5C50.3726 0.5 47.8414 1.51489 45.7355 3.56557C43.6296 5.61639 42.6299 8.09006 42.6299 11.0289C42.6299 13.9677 43.651 16.4202 45.7355 18.4922C47.8201 20.564 50.33 21.5577 53.2655 21.5577C56.201 21.5577 58.6897 20.5218 60.7318 18.471C62.6673 16.547 63.7097 14.2213 63.816 11.5786C63.816 11.346 63.816 11.198 63.816 11.0078C63.816 10.9232 63.816 10.8175 63.816 10.7329C63.7735 7.94205 62.7525 5.57416 60.7318 3.56557ZM56.3073 14.0099C55.4777 14.8346 54.4567 15.2362 53.2442 15.2362C52.053 15.2362 51.0959 14.8346 50.2875 14.0099C49.458 13.1854 49.0326 12.1917 49.0326 11.0289C49.0326 9.86604 49.4367 8.87234 50.2875 8.04783C51.1171 7.22332 52.0743 6.80047 53.2442 6.80047C54.4142 6.80047 55.4777 7.22332 56.3073 8.04783C57.1368 8.87234 57.5622 9.86604 57.5622 11.0289C57.5411 12.1917 57.1368 13.1854 56.3073 14.0099Z" fill="#FC6200"/>
<path d="M65.8545 33.5245L67.1096 31.3258C68.1305 32.2138 69.7046 33.1441 71.4914 33.1863C72.8953 33.1863 73.81 32.7 73.81 31.7909C73.81 31.1989 73.3207 30.7126 72.087 30.2898C68.088 28.831 66.8969 27.8161 66.8969 25.6596C66.8969 23.3552 69.0665 21.7272 71.9807 21.7906C73.9802 21.854 75.4479 22.6575 76.32 23.3552L75.4479 25.8288C74.7884 25.3426 73.0655 24.4333 71.9382 24.4333C71.066 24.4333 70.0876 24.7083 70.0876 25.554C70.0876 26.3151 70.7895 26.7379 72.2572 27.3298C74.916 28.4504 76.8093 29.3173 76.8517 31.6429C76.8517 34.1166 74.7884 35.7234 71.4914 35.7868C68.7687 35.7234 66.6629 34.4338 65.8545 33.5245Z" fill="#FC6200"/>
<path d="M86.7638 21.7271C84.7004 21.7271 83.1903 22.6362 82.3181 24.0949V22.0019H79.1699V41.1144H82.3181V33.2496C83.1903 34.7083 84.6366 35.6174 86.7638 35.6174C90.7628 35.6174 93.4855 32.6575 93.4855 28.6828C93.4643 24.7504 90.8266 21.7693 86.7638 21.7271ZM86.4235 32.5941C84.3176 32.5941 82.6371 30.9873 82.6371 28.6617V28.5982C82.6371 26.2938 84.3601 24.7292 86.4873 24.7292C88.6569 24.7292 90.2736 26.2938 90.2736 28.5982C90.2736 30.9873 88.5931 32.5941 86.4235 32.5941Z" fill="#FC6200"/>
<path d="M102.738 21.7271C98.7387 21.7271 95.7607 24.7504 95.7607 28.6617C95.7607 32.6365 98.7387 35.554 102.738 35.554C106.737 35.554 109.715 32.5941 109.715 28.6617V28.5982C109.715 24.6234 106.694 21.7271 102.738 21.7271ZM102.738 32.5519C100.632 32.5519 98.8876 30.9873 98.8876 28.6828V28.6194C98.8876 26.3148 100.568 24.687 102.674 24.687C104.844 24.687 106.524 26.2938 106.524 28.6617C106.524 30.9873 104.907 32.5941 102.738 32.5519Z" fill="#FC6200"/>
<path d="M112.31 22.0016H115.457V24.6867C116.372 22.8473 118.052 21.8325 120.053 21.8325V24.7924H119.669C117.457 24.7924 115.437 26.5683 115.437 28.5557V35.3001H112.288V22.0016H112.31Z" fill="#FC6200"/>
<path d="M123.754 31.6218V24.9409H122.031V21.9809H123.754V18.2598H126.903V21.9809H130.625V24.9409H126.881V30.9664C126.881 32.0869 127.541 32.6789 128.498 32.6789C129.157 32.6789 129.902 32.5731 130.603 32.3617V34.9412C129.902 35.3216 128.646 35.5965 127.689 35.5965C125.264 35.6177 123.754 34.3279 123.754 31.6218Z" fill="#FC6200"/>
</svg>
